; Title-screen variant of Meet Rival: slower and one octave lower.
Music_TitleMeetRival_Ch1::
	tempo 170
.body:
	volume 7, 7
	duty_cycle 3
	vibrato 5, 2, 3
	toggle_perfect_pitch
	note_type 12, 11, 3
	octave 3
	note D_, 1
	note C#, 1
	note C_, 1
	octave 2
	note B_, 1
	note A#, 2
	note A_, 1
	note G#, 1
	note G_, 1
	note F#, 1
	note F_, 6
	note D_, 1
	rest 3
	note D_, 1
	rest 5
	note A_, 2
	note G_, 2
	note A_, 2
.mainloop:
	note B_, 4
	note A#, 2
	note A_, 4
	note G_, 2
	octave 3
	note C_, 4
	note D_, 2
	rest 4
	note D_, 4
	note C#, 2
	note C_, 2
	octave 2
	note B_, 2
	octave 3
	note C_, 4
	note E_, 2
	note D_, 4
	note C_, 2
	octave 2
	note B_, 4
	octave 3
	note C_, 2
	rest 4
	note G_, 4
	note G_, 2
	note F#, 2
	note E_, 2
	note D_, 2
	note F#, 2
	octave 2
	note A_, 2
	octave 3
	note D_, 2
	note F#, 2
	octave 2
	note A_, 2
	octave 3
	note D_, 2
	octave 2
	note D_, 2
	octave 3
	note D_, 2
	rest 2
	octave 2
	note D_, 2
	octave 3
	note C_, 4
	octave 2
	note B_, 2
	note A#, 2
	note B_, 2
	octave 3
	note C_, 2
	note F_, 2
	octave 2
	note G_, 2
	octave 3
	note C_, 2
	note F_, 2
	note D#, 2
	note C_, 2
	octave 2
	note A#, 2
	note G_, 2
	rest 4
	note A#, 4
	octave 3
	note C_, 2
	octave 2
	note A#, 2
	octave 3
	note C_, 2
	note_type 12, 11, 7
	octave 2
	note G_, 4
	note D_, 2
	note F_, 6
	note F#, 4
	note D_, 2
	rest 4
	note D_, 4
	note_type 12, 11, 3
	note A_, 2
	note G_, 2
	note A_, 2
	sound_loop 0, .mainloop

Music_TitleMeetRival_Ch2::
	duty_cycle 3
	vibrato 10, 2, 6
	note_type 12, 12, 7
	octave 3
	note B_, 1
	note A#, 1
	note A_, 1
	note G#, 1
	note G_, 2
	note F#, 1
	note F_, 1
	note E_, 1
	note D#, 1
	note D_, 6
	octave 2
	note G_, 1
	rest 3
	note G_, 1
	rest 3
	note D_, 1
	rest 1
	octave 3
	note D_, 2
	note F_, 2
	note F#, 2
.mainloop:
	note_type 12, 12, 7
	note G_, 4
	note D_, 2
	note F_, 6
	note F#, 4
	note G_, 2
	rest 4
	note G_, 4
	note G_, 2
	note A#, 2
	note B_, 2
	octave 4
	note C_, 4
	octave 3
	note G_, 2
	note A#, 6
	note B_, 4
	octave 4
	note C_, 2
	rest 4
	note C_, 4
	note C_, 2
	octave 3
	note B_, 2
	octave 4
	note C_, 2
	note_type 12, 11, 0
	note D_, 16
	note_type 12, 11, 5
	note D_, 6
	note_type 12, 12, 7
	note F_, 4
	note D_, 2
	note C_, 2
	note D_, 2
	note_type 12, 11, 0
	note C_, 8
	note_type 12, 12, 7
	note C_, 8
	octave 3
	note C_, 2
	rest 4
	note A#, 4
	note G_, 2
	note F_, 2
	note_type 12, 11, 0
	note G_, 16
	note_type 12, 11, 3
	note G_, 2
	octave 2
	note G_, 2
	rest 4
	note G_, 4
	octave 3
	note D_, 2
	note F_, 2
	note F#, 2
	sound_loop 0, .mainloop

Music_TitleMeetRival_Ch3::
	note_type 12, 1, 4
	octave 4
	note D_, 2
	rest 2
	note C#, 2
	rest 2
	note C_, 2
	rest 2
	octave 3
	note B_, 2
	rest 2
	note G_, 1
	rest 3
	note G_, 1
	rest 3
	note G_, 1
	rest 1
	note G_, 1
	rest 1
	note G_, 1
	rest 1
	note G_, 1
	rest 1
.mainloop:
	note G_, 2
	octave 4
	note D_, 2
	octave 3
	note G_, 2
	rest 2
	octave 4
	note D_, 2
	octave 3
	note G_, 2
	rest 2
	octave 4
	note D_, 2
	octave 3
	note G_, 2
	rest 4
	octave 4
	note D_, 4
	octave 3
	note G_, 2
	note A#, 2
	note B_, 2
	note G_, 2
	octave 4
	note C_, 2
	octave 3
	note G_, 2
	rest 2
	octave 4
	note C_, 2
	octave 3
	note G_, 2
	rest 2
	note B_, 2
	octave 4
	note C_, 2
	rest 4
	note C_, 4
	note C_, 2
	octave 3
	note B_, 2
	note A_, 2
	note F#, 2
	note A_, 2
	rest 2
	note F#, 2
	note A_, 2
	note F#, 2
	rest 2
	note A_, 2
	note F#, 2
	note A_, 2
	rest 2
	note F#, 2
	note A_, 2
	note F#, 2
	octave 4
	note D_, 2
	octave 3
	note A_, 2
	note E_, 2
	octave 4
	note C_, 2
	rest 2
	octave 3
	note E_, 2
	octave 4
	note C_, 2
	octave 3
	note E_, 2
	note F_, 2
	note G_, 2
	note E_, 2
	rest 4
	note E_, 2
	octave 4
	note C_, 2
	octave 3
	note B_, 2
	note A#, 2
	note A_, 2
	note G_, 2
	note A#, 2
	rest 2
	note G_, 2
	note A#, 2
	note G_, 2
	rest 2
	note A#, 2
	note G_, 2
	octave 4
	note D_, 2
	octave 3
	note G_, 2
	rest 2
	octave 4
	note D_, 2
	octave 3
	note G_, 2
	rest 2
	octave 4
	note D_, 2
	sound_loop 0, .mainloop
